<?xml version="1.0" encoding="UTF-8" standalone="no"?>
<!-- Created with Inkscape (http://www.inkscape.org/) -->

<svg
   xmlns:dc="http://purl.org/dc/elements/1.1/"
   xmlns:cc="http://creativecommons.org/ns#"
   xmlns:rdf="http://www.w3.org/1999/02/22-rdf-syntax-ns#"
   xmlns:svg="http://www.w3.org/2000/svg"
   xmlns="http://www.w3.org/2000/svg"
   xmlns:sodipodi="http://sodipodi.sourceforge.net/DTD/sodipodi-0.dtd"
   xmlns:inkscape="http://www.inkscape.org/namespaces/inkscape"
   width="68.02343"
   height="55.64959"
   viewBox="0 0 68.023426 55.649586"
   id="svg2"
   version="1.1"
   inkscape:version="0.91 r13725"
   sodipodi:docname="background.svg">
  <defs
     id="defs4" />
  <sodipodi:namedview
     id="base"
     pagecolor="#ffffff"
     bordercolor="#666666"
     borderopacity="1.0"
     inkscape:pageopacity="0.0"
     inkscape:pageshadow="2"
     inkscape:zoom="8"
     inkscape:cx="39.406814"
     inkscape:cy="46.022254"
     inkscape:document-units="px"
     inkscape:current-layer="layer1"
     showgrid="false"
     units="px"
     showguides="true"
     inkscape:guide-bbox="true"
     inkscape:window-width="1920"
     inkscape:window-height="1056"
     inkscape:window-x="1920"
     inkscape:window-y="24"
     inkscape:window-maximized="1"
     fit-margin-top="4"
     fit-margin-left="4"
     fit-margin-right="4"
     fit-margin-bottom="4">
    <sodipodi:guide
       position="-39.390749,336.42949"
       orientation="0,1"
       id="guide4220" />
  </sodipodi:namedview>
  <metadata
     id="metadata7">
    <rdf:RDF>
      <cc:Work
         rdf:about="">
        <dc:format>image/svg+xml</dc:format>
        <dc:type
           rdf:resource="http://purl.org/dc/dcmitype/StillImage" />
        <dc:title></dc:title>
      </cc:Work>
    </rdf:RDF>
  </metadata>
  <g
     inkscape:label="Layer 1"
     inkscape:groupmode="layer"
     id="layer1"
     transform="translate(9.1092471,-999.64212)">
    <path
       style="fill:#000000"
       d="m 456.84782,1159.0754 0,-14.2461 48.24612,-48.2539 48.24614,-48.2538 -48.24614,-48.2538 -48.24612,-48.25392 0,-14.2461 0,-14.2462 14.24616,0 14.24617,0 48.25383,48.2461 48.25383,48.24622 48.25381,-48.24622 48.25381,-48.2461 14.24618,0 14.24617,0 0,14.2462 0,14.2461 -48.24612,48.25392 -48.24613,48.2538 48.24613,48.2538 48.24612,48.2539 0,14.2461 0,14.2462 -14.24617,0 -14.24618,0 -48.25381,-48.2461 -48.25381,-48.2462 -48.25383,48.2462 -48.25383,48.2461 -14.24617,0 -14.24616,0 0,-14.2462 z"
       id="path4201-3"
       inkscape:connector-curvature="0" />
    <g
       id="g4243"
       transform="matrix(0.41325649,0,0,0.41325649,-5.6976824,602.10926)">
      <path
         inkscape:connector-curvature="0"
         id="path4201"
         d="m 133.85572,1042.4347 c -14.83539,14.833 -29.67079,29.6661 -44.506199,44.4991 -4.379914,0 -8.759827,0 -13.139741,0 0,-4.3799 0,-8.7598 0,-13.1397 14.833024,-14.8354 29.66606,-29.6709 44.4991,-44.5062 -14.83585,-14.8362 -29.668885,-29.67523 -44.4991,-44.51704 0,-4.37992 0,-8.75983 0,-13.13975 4.379914,0 8.759827,0 13.139741,0 19.106629,19.2178 38.474889,38.17689 57.319339,57.65409"
         style="fill:#000000" />
      <rect
         y="1019.9677"
         x="1.4238973"
         height="18.619637"
         width="125.8185"
         id="rect4241"
         style="color:#000000;clip-rule:nonzero;display:inline;overflow:visible;visibility:visible;opacity:1;isolation:auto;mix-blend-mode:normal;color-interpolation:sRGB;color-interpolation-filters:linearRGB;solid-color:#000000;solid-opacity:1;fill:#000000;fill-opacity:1;fill-rule:nonzero;stroke:none;stroke-width:0.99457943;stroke-linecap:butt;stroke-linejoin:round;stroke-miterlimit:4;stroke-dasharray:none;stroke-dashoffset:0;stroke-opacity:1;color-rendering:auto;image-rendering:auto;shape-rendering:auto;text-rendering:auto;enable-background:accumulate" />
    </g>
  </g>
</svg>
